<svg xmlns="http://www.w3.org/2000/svg" width="58" height="46" viewBox="0 0 58 46">
    <g fill="none" fill-rule="nonzero">
        <path fill="#263238" d="M56.29 33.868h-2.677c-.446-10.962-8.849-20.034-19.928-22.075 1.264-1.21 2.007-2.872 2.007-4.762 0-3.78-2.974-6.804-6.692-6.804S22.308 3.25 22.308 7.03c0 1.89.743 3.628 2.007 4.838C13.235 13.91 4.833 22.982 4.387 33.944H1.71c-.818 0-1.487.68-1.487 1.512 0 .831.67 1.512 1.487 1.512h54.58c.818 0 1.487-.68 1.487-1.512s-.67-1.588-1.487-1.588zM29 3.251c2.082 0 3.718 1.663 3.718 3.78 0 2.116-1.636 3.78-3.718 3.78s-3.718-1.664-3.718-3.78c0-2.117 1.636-3.78 3.718-3.78zm0 11.188c11.6 0 21.118 8.694 21.638 19.505H7.362C7.882 23.057 17.4 14.439 29 14.439z"/>
        <path fill="#04B261" d="M56.29 42.108H1.71c-.818 0-1.487.68-1.487 1.512s.67 1.512 1.487 1.512h54.58c.818 0 1.487-.68 1.487-1.512 0-.831-.67-1.512-1.487-1.512z"/>
    </g>
</svg>
