<svg xmlns="http://www.w3.org/2000/svg" width="58" height="44" viewBox="0 0 58 44">
    <g fill="none" fill-rule="nonzero">
        <path fill="#04B261" d="M16.917 18.125a1.208 1.208 0 0 0 .854-2.063l-3.271-3.27v-6.75a1.208 1.208 0 1 0-2.417 0v7.25c0 .32.128.628.354.854l3.625 3.625c.236.236.545.354.855.354z"/>
        <path fill="#263238" d="M57.646 22.104l-9.667-9.667a1.207 1.207 0 0 0-.854-.354h-8.458V8.458c0-.668-.54-1.208-1.209-1.208H25.116C22.91 2.953 18.443 0 13.292 0 5.964 0 0 5.963 0 13.292c0 6.07 4.097 11.192 9.667 12.776v7.765a4.839 4.839 0 0 0 4.833 4.834h.122a6.05 6.05 0 0 0 5.92 4.833 6.05 6.05 0 0 0 5.92-4.833h14.743a6.05 6.05 0 0 0 5.92 4.833 6.05 6.05 0 0 0 5.92-4.833h3.747c.668 0 1.208-.54 1.208-1.209v-14.5c0-.32-.127-.627-.354-.854zm-55.23-8.812c0-5.997 4.879-10.875 10.876-10.875 5.996 0 10.875 4.878 10.875 10.875 0 5.996-4.879 10.875-10.875 10.875-5.997 0-10.875-4.878-10.875-10.875zm18.126 27.791a3.629 3.629 0 0 1-3.625-3.625 3.629 3.629 0 0 1 3.625-3.625 3.629 3.629 0 0 1 3.625 3.625 3.629 3.629 0 0 1-3.625 3.625zM36.25 36.25h-9.789a6.05 6.05 0 0 0-5.92-4.833 6.05 6.05 0 0 0-5.919 4.833H14.5a2.419 2.419 0 0 1-2.417-2.417v-7.31c.399.035.8.06 1.209.06 7.328 0 13.291-5.962 13.291-13.291 0-1.258-.187-2.471-.515-3.625H36.25V36.25zm10.875 4.833a3.629 3.629 0 0 1-3.625-3.625 3.629 3.629 0 0 1 3.625-3.625 3.629 3.629 0 0 1 3.625 3.625 3.629 3.629 0 0 1-3.625 3.625zm8.458-4.833h-2.538a6.05 6.05 0 0 0-5.92-4.833 6.05 6.05 0 0 0-5.92 4.833h-2.538V14.5h7.958l8.958 8.959V36.25z"/>
        <path fill="#263238" d="M43.5 18.125a1.208 1.208 0 1 0-2.417 0v7.25c0 .668.54 1.208 1.209 1.208h9.666a1.208 1.208 0 1 0 0-2.416H43.5v-6.042z"/>
    </g>
</svg>
