<svg xmlns="http://www.w3.org/2000/svg" width="50" height="47" viewBox="0 0 50 47">
    <g fill="none" fill-rule="nonzero">
        <path fill="#263238" d="M45.008 46.288H4.992c-2.012 0-3.648-1.451-3.648-3.235v-27.73c0-.73.668-1.323 1.492-1.323.825 0 1.493.593 1.493 1.324v27.729c0 .324.298.588.663.588h40.016c.365 0 .663-.264.663-.588v-17.14c0-.73.668-1.323 1.493-1.323.824 0 1.492.593 1.492 1.324v17.139c0 1.784-1.636 3.235-3.648 3.235z"/>
        <path fill="#263238" d="M48.507 15.724H1.493A1.493 1.493 0 0 1 0 14.232v-8.02a3.653 3.653 0 0 1 3.649-3.649H46.35A3.653 3.653 0 0 1 50 6.212v8.02c0 .824-.668 1.492-1.493 1.492zM2.985 12.74h44.03V6.212a.664.664 0 0 0-.664-.664H3.65a.664.664 0 0 0-.664.664v6.527z"/>
        <path fill="#263238" d="M7.497 7c-.824 0-1.492-.562-1.492-1.257V1.258c0-.694.668-1.257 1.492-1.257.825 0 1.493.563 1.493 1.257v4.485c0 .695-.668 1.258-1.493 1.258zM42.503 7c-.825 0-1.493-.562-1.493-1.257V1.258c0-.694.668-1.257 1.493-1.257.824 0 1.492.563 1.492 1.257v4.485c0 .695-.668 1.258-1.492 1.258z"/>
        <path fill="#04B261" d="M24.82 33.298c-.395 0-.775-.157-1.055-.437l-4.627-4.627a1.493 1.493 0 0 1 2.11-2.111l3.572 3.571 6.8-6.8a1.493 1.493 0 0 1 2.112 2.111l-7.856 7.856c-.28.28-.66.437-1.055.437z"/>
        <path fill="#04B261" d="M35.222 38.825H14.778a1.493 1.493 0 0 1-1.493-1.493V21.371c0-.824.669-1.493 1.493-1.493h9.277a1.493 1.493 0 0 1 0 2.986H16.27V35.84h17.458v-6.39a1.493 1.493 0 0 1 2.986 0v7.883c0 .824-.669 1.492-1.493 1.492z"/>
    </g>
</svg>
