<svg xmlns="http://www.w3.org/2000/svg" width="52" height="39" viewBox="0 0 52 39">
    <g fill="none" fill-rule="nonzero">
        <path fill="#263238" d="M28.201 30.759H3.573c-.564 0-1.02-.457-1.02-1.021V10.32h43.439v2.552a1.28 1.28 0 0 0 1.276 1.277 1.28 1.28 0 0 0 1.276-1.277V3.674A3.58 3.58 0 0 0 44.971.101H3.573A3.574 3.574 0 0 0 0 3.674v26.064a3.58 3.58 0 0 0 3.573 3.573h24.639a1.28 1.28 0 0 0 1.276-1.276c0-.702-.574-1.276-1.287-1.276zM3.573 2.653h41.398c.564 0 1.02.458 1.02 1.021v4.094H2.542V3.674c0-.563.468-1.02 1.032-1.02z"/>
        <path fill="#263238" d="M25.543 19.795a1.28 1.28 0 0 0-1.276-1.276H8.933a1.28 1.28 0 0 0-1.277 1.276 1.28 1.28 0 0 0 1.277 1.276h15.334c.712 0 1.276-.574 1.276-1.276zM8.933 23.092a1.28 1.28 0 0 0-1.277 1.276 1.28 1.28 0 0 0 1.277 1.276h6.135a1.28 1.28 0 0 0 1.276-1.276 1.28 1.28 0 0 0-1.276-1.276H8.933zM8.784 16.446h15.334a1.28 1.28 0 0 0 1.276-1.277 1.28 1.28 0 0 0-1.276-1.276H8.784a1.28 1.28 0 0 0-1.276 1.276c0 .702.563 1.277 1.276 1.277z"/>
        <path fill="#04B261" d="M50.65 25.23h-1.872v-2.978c0-3.69-3.01-6.7-6.7-6.7-3.69 0-6.699 3.01-6.699 6.7v2.977h-1.871a1.28 1.28 0 0 0-1.277 1.276v11.06a1.28 1.28 0 0 0 1.277 1.276h17.13a1.28 1.28 0 0 0 1.277-1.276v-11.06a1.257 1.257 0 0 0-1.266-1.276zM37.93 22.24a4.153 4.153 0 0 1 4.148-4.147 4.153 4.153 0 0 1 4.147 4.147v2.978H37.93V22.24zm11.442 14.037h-14.59V27.77h14.58v8.507h.01z"/>
    </g>
</svg>
