<svg xmlns="http://www.w3.org/2000/svg" width="50" height="46" viewBox="0 0 50 46">
    <g fill="none" fill-rule="nonzero">
        <path fill="#263238" d="M43.196 6.716A22.74 22.74 0 0 0 27.015.012c-6.222 0-12.043 2.453-16.386 6.91a1.243 1.243 0 0 0 .02 1.745 1.243 1.243 0 0 0 1.746-.02c3.88-3.974 9.065-6.161 14.62-6.161 11.263-.01 20.42 9.148 20.42 20.41 0 11.263-9.157 20.422-20.42 20.422-11.263 0-20.421-9.159-20.421-20.421v-.257l2.033 2.033a1.236 1.236 0 0 0 1.745 0 1.233 1.233 0 0 0 0-1.746L6.245 18.79a1.233 1.233 0 0 0-1.746 0L.362 22.927a1.233 1.233 0 1 0 1.745 1.746L4.14 22.64v.257a22.74 22.74 0 0 0 6.704 16.18 22.74 22.74 0 0 0 16.181 6.705 22.74 22.74 0 0 0 16.18-6.705c4.323-4.322 6.695-10.072 6.695-16.18a22.74 22.74 0 0 0-6.704-16.181z"/>
        <path fill="#04B261" d="M33.565 14.57L18.432 29.693a1.233 1.233 0 1 0 1.745 1.746l15.134-15.134a1.233 1.233 0 0 0 0-1.745 1.243 1.243 0 0 0-1.746.01zM29.602 24.755a4.418 4.418 0 0 0 0 6.232 4.388 4.388 0 0 0 3.121 1.294c1.181 0 2.29-.462 3.121-1.294a4.418 4.418 0 0 0 0-6.232 4.388 4.388 0 0 0-3.12-1.294c-1.181 0-2.28.462-3.122 1.294zm4.497 4.497c-.37.37-.852.565-1.376.565a1.96 1.96 0 0 1-1.375-.565 1.946 1.946 0 0 1 0-2.752c.37-.37.852-.564 1.375-.564a1.96 1.96 0 0 1 1.376.564c.76.76.76 1.992 0 2.752zM21.348 13.472c-1.181 0-2.29.462-3.122 1.293a4.388 4.388 0 0 0-1.293 3.121c0 1.181.462 2.29 1.293 3.121a4.388 4.388 0 0 0 3.122 1.294c1.18 0 2.29-.462 3.12-1.294a4.388 4.388 0 0 0 1.294-3.12c0-1.181-.462-2.29-1.293-3.122a4.406 4.406 0 0 0-3.121-1.293zm1.375 5.79c-.37.37-.852.565-1.375.565a1.96 1.96 0 0 1-1.376-.565 1.916 1.916 0 0 1-.565-1.376c0-.523.205-1.006.565-1.375.37-.37.852-.565 1.376-.565a1.96 1.96 0 0 1 1.375.565c.37.37.565.852.565 1.375 0 .514-.195 1.007-.565 1.376z"/>
    </g>
</svg>
