<svg xmlns="http://www.w3.org/2000/svg" width="50" height="54" viewBox="0 0 50 54">
    <g fill="none" fill-rule="nonzero">
        <path fill="#04B261" d="M26.719 24.208a1.335 1.335 0 0 0 1.885 0l8.193-8.193a1.332 1.332 0 1 0-1.885-1.885l-7.25 7.262-2.928-2.927a1.332 1.332 0 1 0-1.884 1.885l3.869 3.858z"/>
        <path fill="#263238" d="M14.191 35.294h29.812a5.973 5.973 0 0 0 5.964-5.964V16.769c0-.732-.598-1.33-1.33-1.33-.732 0-1.33.598-1.33 1.33v12.55a3.305 3.305 0 0 1-3.304 3.304H14.19a3.305 3.305 0 0 1-3.304-3.304V4.795c0-.044 0-.1-.01-.144v-.033c0-.033-.012-.066-.012-.089a.206.206 0 0 0-.022-.077c0-.011-.011-.033-.011-.045-.011-.033-.022-.055-.033-.088 0-.011-.011-.022-.011-.034-.011-.022-.022-.055-.034-.077-.01-.011-.01-.033-.022-.044-.01-.023-.022-.045-.033-.067-.011-.022-.022-.033-.033-.055-.011-.012-.022-.034-.034-.045-.01-.022-.033-.044-.044-.055l-.033-.033c-.022-.023-.033-.045-.056-.067-.01-.011-.022-.022-.033-.022-.022-.022-.044-.045-.066-.056l-.034-.033c-.022-.01-.044-.033-.066-.044-.022-.022-.056-.033-.078-.056a.024.024 0 0 1-.022-.022l-.133-.066L1.874.106a1.328 1.328 0 0 0-1.74.71c-.289.665.033 1.452.71 1.74l7.372 3.115v32.994a5.965 5.965 0 0 0 5.465 5.942 5.856 5.856 0 0 0-.986 3.26 5.91 5.91 0 0 0 5.898 5.897 5.91 5.91 0 0 0 5.898-5.898 5.882 5.882 0 0 0-.965-3.237H37.64a5.882 5.882 0 0 0-.964 3.237 5.91 5.91 0 0 0 5.898 5.898 5.91 5.91 0 0 0 5.898-5.898 5.91 5.91 0 0 0-5.898-5.898H14.19a3.305 3.305 0 0 1-3.304-3.303v-4.38a5.93 5.93 0 0 0 3.304 1.01zm7.639 12.572a3.241 3.241 0 0 1-3.237 3.238 3.241 3.241 0 0 1-3.238-3.238 3.241 3.241 0 0 1 3.238-3.237 3.241 3.241 0 0 1 3.237 3.237zm23.969 0a3.241 3.241 0 0 1-3.237 3.238 3.241 3.241 0 0 1-3.238-3.238 3.241 3.241 0 0 1 3.238-3.237 3.241 3.241 0 0 1 3.237 3.237z"/>
    </g>
</svg>
